FILE "Fatal Fury Special (demo) (1995)(JVC)(EU)(en).img" BINARY
  TRACK 01 MODE1/2352
    INDEX 01 00:00:00
  TRACK 02 AUDIO
    PREGAP 00:02:00
    INDEX 01 01:29:72
  TRACK 03 AUDIO
    INDEX 01 01:46:30
  TRACK 04 AUDIO
    INDEX 01 02:19:55
  TRACK 05 AUDIO
    INDEX 01 02:57:09
  TRACK 06 AUDIO
    INDEX 01 03:21:01
  TRACK 07 AUDIO
    INDEX 01 04:04:39
  TRACK 08 AUDIO
    INDEX 01 05:57:39
